inDegrees=yes
name=ik_S56_A08_T02
DataType=double
version=3
OpenSimVersion=4.3-2021-08-27-4bc7ad9
endheader
time	pelvis_tilt	pelvis_list	pelvis_rotation	pelvis_tx	pelvis_ty	pelvis_tz	hip_flexion_r	hip_adduction_r	hip_rotation_r	knee_angle_r	knee_angle_r_beta	ankle_angle_r	subtalar_angle_r	mtp_angle_r	hip_flexion_l	hip_adduction_l	hip_rotation_l	knee_angle_l	knee_angle_l_beta	ankle_angle_l	subtalar_angle_l	mtp_angle_l	lumbar_extension	lumbar_bending	lumbar_rotation	arm_flex_r	arm_add_r	arm_rot_r	elbow_flex_r	pro_sup_r	wrist_flex_r	wrist_dev_r	arm_flex_l	arm_add_l	arm_rot_l	elbow_flex_l	pro_sup_l	wrist_flex_l	wrist_dev_l
0	0	0	0	0	0.9399999999999999	0	0	0	0	0	0	0	0	0	0	0	0	0	0	0	0	0	0	0	0	0	0	0	0	89.99999999963507	0	0	0	0	0	0	89.99999999869995	0	0
0.02	-6.192246510259526	-3.737422038548913	24.43260084607894	0	0.9399999999999999	0	3.047718582495491	-1.421488386969117	-1.025619376433339	4.725667260412454	0.08247845304789761	0	0	0	3.047718582495491	-1.421488386969117	-1.025619376433339	4.725667260412454	0.08247845304789761	0	0	0	-6.270079089324494	-0.1619709436453582	4.5277872051737	32.28428726006442	-9.116354517542979	16.16871378919821	38.92449827854414	116.2332582366976	0	0	29.17106985288158	-5.689705388528453	9.415505241712143	41.17137759689959	119.7039371697894	0	0
0.04	-4.619559565701505	-4.212304681150138	28.03540629688132	0	0.9399999999999999	0	45.38465483879693	-15.57850837070143	-13.96051962467892	47.46292359021815	0.8283842892717945	0	0	0	45.38465483879693	-15.57850837070143	-13.96051962467892	47.46292359021815	0.8283842892717945	0	0	0	-7.433406676766951	1.385010780071841	1.209290684065058	32.28543867150938	-9.133478088745315	16.14221282836424	38.92025319194556	116.1926853899476	0	0	29.16512661290799	-5.671977687637596	9.416450179363983	41.21355011192594	119.6873482800872	0	0
0.06	-4.621239404110057	-4.195829645776166	28.03995837632153	0	0.9399999999999999	0	45.3839868242096	-15.54464063239602	-13.94515822479056	47.47181872882941	0.8285395387279824	0	0	0	45.3839868242096	-15.54464063239602	-13.94515822479056	47.47181872882941	0.8285395387279824	0	0	0	-7.425187174847639	1.395917721550191	1.214351641256322	32.26721324075495	-9.157074932725958	16.11037952191472	38.99204351239894	116.1723976149571	0	0	29.16594411953918	-5.67030829854249	9.41534949404253	41.24867901759807	119.6312792063631	0	0
0.08	-4.614648323873395	-4.182532763494374	28.04775671398958	0	0.9399999999999999	0	45.3840868468283	-15.54703985069398	-13.94681104157717	47.47040708511061	0.8285149008972241	0	0	0	45.3840868468283	-15.54703985069398	-13.94681104157717	47.47040708511061	0.8285149008972241	0	0	0	-7.412692859813563	1.403174905161852	1.227444823448453	32.25386862941636	-9.168822867927883	16.06144841893731	38.98451681927492	116.2134380611262	0	0	29.15093737764126	-5.630911892103546	9.427184468821174	41.19579426630152	119.6294538094164	0	0
0.1	-4.61623137416275	-4.176497321823505	28.05635046883	0	0.9399999999999999	0	45.38374648660471	-15.52966241144561	-13.93895332848577	47.47493681349083	0.82859395957168	1.478164496242982e-35	0	0	45.38374648660471	-15.52966241144561	-13.93895332848577	47.47493681349083	0.82859395957168	1.478164496242982e-35	0	0	-7.410063743418231	1.406478594312357	1.233041233616539	32.25554437629165	-9.173034101144488	16.02291874963755	39.01456412337548	116.2134343534796	0	1.616420763446103e-35	29.1517480511186	-5.627870829797775	9.425903202062216	41.20471978066495	119.6052720862946	0	1.616420763446103e-35
0.12	-4.616943943924854	-4.172258660314187	28.05367433930601	0	0.9399999999999999	0	45.38340677952159	-15.51355508472068	-13.93138022639882	47.47949358857553	0.8286734903001809	0	0	0	45.38340677952159	-15.51355508472068	-13.93138022639882	47.47949358857553	0.8286734903001809	0	0	0	-7.407231642069942	1.407266608919951	1.241265292142216	32.24872216584537	-9.168680328488607	15.96412325720945	39.02891093654735	116.2422952948648	0	0	29.15594568007435	-5.628024682267372	9.431448269305639	41.19133567280955	119.5870722051746	0	0
0.14	-4.614666273185127	-4.158373758058921	28.07807205862263	0	0.9399999999999999	0	45.38289317059199	-15.49735773765482	-13.92194686133557	47.48671138974302	0.828799464695308	0	0	0	45.38289317059199	-15.49735773765482	-13.92194686133557	47.48671138974302	0.828799464695308	0	0	0	-7.397621595545794	1.416126708600471	1.238120763522603	32.22060737735978	-9.163176051638205	15.87755131321095	39.05360350988793	116.2597655861001	0	0	29.15528991378726	-5.595634433156243	9.361543783825862	41.19381232936615	119.586130887453	0	0
0.16	-4.613486029606462	-4.155476151743079	28.0944873049983	0	0.9399999999999999	0	45.38230275766375	-15.48429464363024	-13.91245023140594	47.49521735788096	0.8289479218453847	0	0	0	45.38230275766375	-15.48429464363024	-13.91245023140594	47.49521735788096	0.8289479218453847	0	0	0	-7.393945807190353	1.415774976804511	1.230524926944016	32.20122929118649	-9.163495442311206	15.83605993658981	39.08287207981844	116.2838442161315	0	0	29.14905790615454	-5.574709745719639	9.301900010266806	41.19293405463517	119.6201593153231	0	0
0.18	-4.620396216187823	-4.150352176575072	28.11160305486088	0	0.9399999999999999	0	45.38171936785955	-15.45974239839086	-13.90021579491425	47.50316236209189	0.8290865883279503	0	0	0	45.38171936785955	-15.45974239839086	-13.90021579491425	47.50316236209189	0.8290865883279503	0	0	0	-7.39600807595331	1.420070607568203	1.231392652153656	32.20451261732782	-9.181016942869046	15.81637786867818	39.11964933560839	116.2846285272538	0	0	29.13811931262333	-5.55692580098708	9.264507468623332	41.21820420337204	119.6459355898032	0	0
0.2	-4.623986937845525	-4.142880636048934	28.12275219557786	0	0.9399999999999999	0	45.38113039622726	-15.44425877777398	-13.89016225167345	47.51156443678317	0.8292332321953115	0	0	0	45.38113039622726	-15.44425877777398	-13.89016225167345	47.51156443678317	0.8292332321953115	0	0	0	-7.394231518693459	1.425492877435517	1.227538846721781	32.18140529216715	-9.176348011777456	15.78991293560397	39.14305567135624	116.2917543795032	0	0	29.14060069867518	-5.534317427478659	9.230584370689431	41.22851595576019	119.6890378498724	0	0
0.22	-4.619549255121723	-4.140359561819972	28.12915604292957	0	0.9399999999999999	0	45.38065488101786	-15.42509714003813	-13.8804087880344	47.51808055729965	0.8293469599527808	0	0	0	45.38065488101786	-15.42509714003813	-13.8804087880344	47.51808055729965	0.8293469599527808	0	0	0	-7.388060730432353	1.423539639782281	1.223608397078141	32.16946827765909	-9.169932021119564	15.78885284246012	39.17691477643888	116.2812579367252	0	0	29.12682813455036	-5.531775562747167	9.216119295557109	41.24736886738867	119.7180359836569	0	0
0.24	-4.618849769742127	-4.139313956216539	28.14118144868693	0	0.9399999999999999	0	45.3803200597134	-15.41321544511195	-13.87393992834979	47.52274118444741	0.8294283032417171	0	0	0	45.3803200597134	-15.41321544511195	-13.87393992834979	47.52274118444741	0.8294283032417171	0	0	0	-7.385961844880025	1.422156041468522	1.223301908092178	32.17373892142269	-9.175865325664624	15.80626879110193	39.19966174725048	116.27847130813	0	0	29.10532674823246	-5.49784210351764	9.219324759191668	41.26629059374194	119.7685779319254	0	0
0.26	-4.624695937254895	-4.133907964005689	28.13642701416687	0	0.9399999999999999	0	45.37996763376997	-15.43096213183149	-13.87470393132274	47.52890832593111	0.829535940166044	0	0	0	45.37996763376997	-15.43096213183149	-13.87470393132274	47.52890832593111	0.829535940166044	0	0	0	-7.38678304290394	1.425744402316305	1.232559051079393	32.16086669875673	-9.194227477378812	15.81253667349469	39.18726497990217	116.2800495070722	0	0	29.12001891404714	-5.502964226183801	9.184529957237993	41.34602218032503	120.2211837932563	0	0
0.28	-4.629928468778299	-4.129257365171437	28.13314878475579	0	0.9399999999999999	0	45.37985152242688	-15.42516114416463	-13.87206607905987	47.53048214233604	0.829563408444132	0	0	0	45.37985152242688	-15.42516114416463	-13.87206607905987	47.53048214233604	0.829563408444132	0	0	0	-7.387839616603104	1.429437050946454	1.246661952767049	32.1655458975531	-9.209972269343844	15.82354051240984	39.18429858031588	116.2519109701514	0	0	28.95952903744623	-5.474331461561893	9.195007672928561	41.5812248898287	120.5150898200866	0	0
